<svg xmlns="http://www.w3.org/2000/svg" xmlns:xlink="http://www.w3.org/1999/xlink" width="1000" zoomAndPan="magnify" viewBox="0 0 750 225" height="300" preserveAspectRatio="xMidYMid meet" version="1.0"><defs><g/></defs><g fill="#000000" fill-opacity="1"><g transform="translate(5.028544, 153.240208)"><g><path d="M 189.644531 -38.636719 C 191.820312 -41.628906 192.09375 -44.621094 190.460938 -47.613281 C 191.003906 -48.429688 191.003906 -48.976562 191.003906 -49.792969 C 190.460938 -50.609375 191.003906 -51.695312 189.914062 -52.785156 C 189.914062 -53.054688 190.1875 -53.601562 190.460938 -53.871094 C 190.460938 -54.417969 191.003906 -54.6875 191.003906 -54.6875 C 191.003906 -54.960938 190.460938 -55.234375 190.1875 -55.234375 C 189.914062 -55.503906 189.644531 -55.503906 189.097656 -55.503906 C 190.1875 -56.59375 190.460938 -57.136719 190.1875 -58.5 L 188.28125 -67.203125 C 187.464844 -71.285156 186.648438 -75.640625 184.746094 -79.449219 C 183.386719 -82.714844 181.207031 -85.707031 179.304688 -88.972656 C 177.671875 -91.691406 176.039062 -94.6875 173.589844 -97.132812 C 169.507812 -101.214844 165.425781 -105.296875 161.074219 -109.105469 C 159.441406 -110.464844 157.539062 -111.828125 155.359375 -112.914062 C 153.457031 -114.277344 151.550781 -115.09375 149.375 -116.453125 C 150.191406 -117.539062 151.277344 -120.261719 151.277344 -121.078125 C 151.007812 -121.621094 150.464844 -122.167969 149.648438 -123.253906 C 149.648438 -123.527344 147.742188 -124.613281 147.742188 -124.070312 C 147.199219 -124.070312 146.382812 -124.34375 146.109375 -124.613281 L 142.84375 -126.519531 C 142.027344 -127.609375 141.210938 -127.609375 140.125 -126.519531 C 139.035156 -125.160156 137.945312 -123.796875 137.128906 -122.167969 L 136.585938 -121.621094 C 133.867188 -122.167969 129.242188 -123.253906 126.246094 -123.527344 C 121.621094 -123.796875 116.722656 -124.070312 111.554688 -124.070312 C 108.019531 -124.070312 103.664062 -123.796875 100.128906 -123.527344 C 96.863281 -123.253906 93.871094 -122.710938 90.605469 -122.167969 C 86.796875 -121.621094 84.890625 -120.804688 79.992188 -119.445312 L 77.816406 -119.445312 C 76.726562 -118.628906 75.640625 -118.902344 74.277344 -118.355469 C 71.832031 -117.269531 69.382812 -116.179688 66.933594 -114.820312 L 66.117188 -112.914062 L 64.484375 -112.097656 L 58.226562 -109.378906 L 56.59375 -108.289062 C 54.960938 -107.472656 52.785156 -106.929688 50.878906 -105.570312 C 49.246094 -105.023438 47.886719 -103.9375 46.527344 -103.121094 C 43.804688 -101.214844 40.539062 -99.855469 38.09375 -97.679688 C 35.914062 -96.046875 33.738281 -93.871094 31.5625 -92.238281 C 28.570312 -89.789062 26.121094 -86.796875 23.945312 -83.53125 L 23.128906 -82.714844 C 22.855469 -82.714844 22.855469 -82.984375 22.855469 -82.984375 C 22.855469 -83.257812 22.855469 -83.53125 23.128906 -84.074219 C 20.949219 -82.984375 21.222656 -80.808594 19.863281 -79.449219 C 18.773438 -78.089844 17.957031 -75.910156 17.140625 -74.277344 C 15.507812 -69.652344 14.148438 -65.300781 13.875 -60.675781 C 13.332031 -59.042969 13.332031 -57.136719 13.875 -55.234375 C 13.875 -52.785156 13.875 -50.335938 14.421875 -47.886719 C 16.054688 -41.628906 17.957031 -36.1875 22.039062 -30.746094 C 25.304688 -26.121094 29.65625 -22.582031 33.738281 -19.046875 L 39.179688 -14.964844 L 45.167969 -11.972656 C 46.527344 -11.15625 48.160156 -10.609375 49.792969 -9.796875 L 58.5 -7.074219 C 59.585938 -6.800781 60.402344 -6.800781 61.761719 -5.984375 L 59.585938 -2.992188 L 52.242188 6.800781 L 50.335938 9.796875 L 44.621094 17.957031 L 41.628906 21.765625 L 40.269531 24.757812 L 39.722656 26.9375 C 41.902344 29.65625 44.621094 31.832031 47.886719 32.921875 L 51.425781 29.386719 C 52.511719 28.023438 54.417969 25.847656 54.6875 25.304688 L 57.410156 21.496094 L 59.042969 19.046875 C 60.945312 20.679688 63.125 22.3125 65.300781 23.945312 C 69.925781 27.207031 73.191406 29.65625 77.816406 31.5625 L 89.242188 36.1875 C 91.421875 37.003906 93.871094 37.277344 96.046875 37.820312 C 99.039062 38.636719 102.03125 39.453125 105.570312 39.722656 L 107.746094 39.722656 L 107.746094 39.453125 L 104.753906 38.363281 L 105.023438 38.09375 L 108.289062 38.09375 C 109.921875 38.09375 111.554688 37.820312 112.644531 38.09375 C 115.09375 38.636719 116.453125 37.820312 123.253906 36.1875 L 124.34375 36.1875 C 127.0625 36.460938 131.417969 35.371094 132.503906 35.371094 L 137.402344 32.921875 L 137.402344 32.648438 L 138.761719 30.203125 C 139.851562 29.386719 141.484375 29.113281 143.390625 28.296875 L 156.992188 20.679688 C 162.164062 16.324219 167.058594 12.242188 168.421875 10.339844 L 176.3125 -0.273438 L 179.847656 -7.074219 L 180.9375 -9.523438 L 186.105469 -22.039062 C 186.921875 -22.039062 187.195312 -22.582031 187.464844 -22.855469 L 188.828125 -24.214844 C 188.828125 -25.574219 188.828125 -28.296875 189.097656 -28.296875 C 190.1875 -28.839844 190.460938 -29.386719 189.371094 -30.746094 C 190.460938 -31.019531 190.1875 -31.832031 189.644531 -32.105469 L 190.460938 -34.28125 C 191.003906 -34.828125 191.003906 -35.097656 191.003906 -35.644531 C 191.820312 -37.546875 191.546875 -37.820312 189.644531 -38.636719 Z M 56.320312 -13.058594 C 53.054688 -14.148438 49.792969 -14.964844 46.253906 -16.597656 L 41.902344 -18.773438 C 40.269531 -19.863281 38.363281 -20.949219 37.003906 -22.582031 C 35.644531 -23.398438 34.828125 -25.03125 33.738281 -25.847656 C 33.195312 -26.390625 32.378906 -27.207031 31.289062 -27.753906 C 31.019531 -28.570312 30.746094 -29.65625 30.203125 -30.472656 C 29.929688 -31.019531 28.839844 -31.832031 28.839844 -32.921875 L 26.121094 -37.820312 L 26.121094 -38.09375 L 25.304688 -42.171875 C 23.128906 -44.351562 23.671875 -45.710938 24.488281 -46.796875 L 23.128906 -47.613281 C 23.128906 -48.703125 23.398438 -50.0625 23.398438 -50.878906 C 23.671875 -52.242188 23.671875 -53.054688 23.671875 -53.871094 L 24.214844 -56.867188 L 22.3125 -58.226562 C 23.671875 -57.953125 24.214844 -59.042969 24.214844 -60.128906 C 23.945312 -61.21875 24.214844 -62.035156 24.488281 -62.578125 L 25.574219 -66.117188 L 26.9375 -68.019531 C 28.296875 -70.46875 29.113281 -73.191406 30.746094 -75.640625 C 32.105469 -77.542969 33.738281 -78.90625 35.371094 -80.808594 L 38.363281 -84.617188 L 38.90625 -85.164062 C 39.453125 -85.433594 39.996094 -85.433594 40.269531 -85.707031 C 42.71875 -88.699219 46.253906 -90.332031 48.976562 -92.507812 C 52.785156 -95.773438 56.59375 -96.863281 60.402344 -99.039062 L 62.308594 -100.398438 C 62.578125 -100.671875 63.125 -100.945312 63.941406 -101.214844 C 64.484375 -101.214844 65.300781 -101.214844 65.300781 -101.488281 C 67.203125 -103.9375 70.199219 -104.753906 72.917969 -106.386719 C 74.277344 -106.929688 75.910156 -107.203125 77.542969 -108.019531 C 78.632812 -108.289062 79.175781 -108.835938 80.265625 -109.378906 L 82.441406 -110.464844 C 83.800781 -111.011719 84.890625 -110.738281 86.25 -111.28125 C 89.515625 -112.371094 92.78125 -114.003906 96.863281 -114.820312 C 100.671875 -115.363281 103.9375 -116.453125 109.105469 -116.996094 C 119.988281 -118.355469 125.160156 -117.8125 133.867188 -116.179688 L 126.792969 -106.113281 C 125.976562 -104.753906 125.160156 -103.664062 124.34375 -102.574219 C 101.214844 -64.757812 90.605469 -48.429688 80.539062 -32.378906 L 80.265625 -31.289062 C 79.992188 -31.289062 78.90625 -30.746094 78.632812 -30.203125 C 76.726562 -27.753906 75.367188 -25.03125 73.464844 -22.582031 C 71.015625 -19.046875 68.566406 -15.78125 66.117188 -11.972656 C 65.300781 -11.15625 64.484375 -11.15625 63.125 -11.425781 C 60.945312 -12.242188 58.769531 -12.515625 56.320312 -13.058594 Z M 180.664062 -43.804688 C 180.390625 -41.628906 180.390625 -39.453125 180.121094 -37.546875 C 179.304688 -34.828125 178.761719 -32.105469 177.945312 -29.386719 L 174.949219 -21.765625 C 173.316406 -17.140625 170.871094 -12.789062 168.148438 -8.433594 C 167.058594 -5.984375 165.15625 -3.808594 163.25 -0.542969 C 162.980469 -0.542969 162.980469 -0.273438 162.980469 0 L 159.167969 4.351562 L 157.539062 5.984375 L 156.449219 7.347656 C 155.632812 7.890625 154.542969 8.980469 154 9.523438 C 153.183594 9.796875 152.09375 12.515625 147.199219 15.507812 L 146.652344 15.507812 L 142.300781 18.230469 C 139.851562 19.863281 137.675781 21.496094 135.5 22.855469 L 128.96875 26.121094 L 128.96875 27.207031 C 127.878906 27.207031 126.519531 26.9375 125.703125 27.207031 C 122.980469 28.023438 120.535156 28.839844 117.539062 29.386719 C 115.09375 30.203125 112.644531 30.203125 110.195312 30.472656 L 100.945312 31.5625 C 96.046875 31.832031 92.78125 31.5625 87.882812 30.203125 C 85.164062 29.386719 81.898438 28.296875 78.90625 26.9375 C 76.183594 25.574219 71.832031 23.128906 68.835938 20.949219 C 66.117188 19.046875 63.941406 16.597656 62.308594 14.691406 L 66.117188 9.523438 C 67.75 7.074219 69.109375 5.441406 70.199219 2.992188 C 71.285156 1.632812 72.101562 0 73.464844 -1.089844 C 74.550781 -2.722656 75.09375 -2.992188 75.910156 -4.351562 L 76.457031 -5.441406 C 79.175781 -6.257812 82.441406 -5.167969 84.347656 -5.714844 C 85.164062 -5.714844 85.707031 -5.714844 86.796875 -5.441406 C 90.058594 -5.167969 93.597656 -6.800781 96.863281 -6.800781 C 102.574219 -6.800781 107.746094 -7.890625 112.914062 -8.433594 L 118.355469 -9.796875 C 119.445312 -10.066406 122.710938 -10.339844 123.527344 -11.972656 C 124.070312 -12.242188 125.703125 -12.242188 125.976562 -12.242188 L 131.960938 -13.058594 L 131.960938 -13.875 C 131.417969 -13.875 130.871094 -14.421875 130.601562 -14.421875 C 129.242188 -14.148438 128.152344 -14.148438 127.0625 -13.875 C 125.703125 -13.605469 124.613281 -13.605469 123.527344 -13.605469 L 116.179688 -12.515625 L 110.464844 -12.242188 L 102.847656 -11.15625 L 100.945312 -11.15625 C 93.871094 -10.339844 86.796875 -10.066406 79.175781 -9.796875 C 79.722656 -10.066406 79.722656 -10.339844 79.992188 -10.339844 C 81.082031 -12.789062 82.714844 -14.964844 84.347656 -17.140625 C 84.617188 -17.957031 84.617188 -18.5 84.890625 -19.046875 L 87.613281 -21.765625 C 88.15625 -22.855469 88.425781 -23.671875 89.242188 -25.03125 C 90.332031 -26.121094 91.691406 -27.480469 92.507812 -28.839844 L 96.046875 -34.554688 C 96.589844 -35.644531 97.40625 -37.003906 98.496094 -37.820312 C 99.039062 -39.179688 100.128906 -39.996094 100.671875 -41.355469 C 101.488281 -42.171875 101.761719 -43.261719 102.847656 -44.078125 C 103.664062 -45.4375 105.023438 -46.527344 105.570312 -48.160156 C 106.113281 -49.792969 107.203125 -50.878906 108.019531 -52.242188 L 108.019531 -53.328125 C 109.648438 -53.601562 109.921875 -54.6875 110.464844 -55.777344 C 112.371094 -59.042969 114.546875 -62.308594 116.453125 -65.84375 L 121.894531 -74.277344 C 123.253906 -76.183594 123.796875 -78.632812 125.703125 -80.265625 C 127.0625 -82.167969 128.152344 -84.890625 129.242188 -87.066406 L 129.785156 -88.425781 C 130.601562 -89.242188 131.417969 -90.058594 132.234375 -91.421875 C 133.867188 -94.140625 135.769531 -96.863281 137.402344 -99.855469 C 139.308594 -102.304688 140.667969 -104.753906 142.300781 -106.929688 C 143.660156 -108.835938 144.476562 -110.464844 145.835938 -112.097656 C 146.925781 -111.828125 148.015625 -111.28125 148.832031 -110.738281 L 148.832031 -111.28125 L 153.726562 -107.472656 C 154 -107.203125 154 -106.929688 154.273438 -106.929688 L 162.980469 -98.496094 L 164.613281 -96.863281 C 165.425781 -95.773438 166.789062 -94.140625 167.605469 -92.507812 L 173.316406 -83.257812 C 173.863281 -82.441406 174.679688 -81.082031 175.496094 -80.808594 L 175.496094 -79.449219 L 176.3125 -77.273438 C 176.855469 -75.09375 177.398438 -72.648438 178.214844 -70.742188 C 179.847656 -68.566406 179.03125 -66.117188 179.847656 -63.941406 C 180.664062 -61.492188 180.390625 -58.5 180.390625 -56.050781 C 180.664062 -53.871094 180.390625 -51.695312 180.664062 -49.792969 C 180.664062 -48.976562 181.207031 -48.429688 181.207031 -47.613281 C 180.9375 -46.253906 180.664062 -44.894531 180.664062 -43.804688 Z M 180.664062 -43.804688 "/></g></g></g><g fill="#000000" fill-opacity="1"><g transform="translate(212.901123, 153.240208)"><g><path d="M 22.582031 -59.585938 C 24.214844 -58.5 25.847656 -58.5 27.207031 -59.042969 C 29.65625 -60.675781 32.105469 -62.308594 33.195312 -65.300781 C 34.28125 -68.292969 33.195312 -71.285156 32.378906 -74.007812 C 31.832031 -75.910156 30.203125 -76.726562 27.207031 -76.457031 C 27.207031 -76.457031 26.121094 -76.457031 25.847656 -76.183594 C 22.3125 -74.277344 19.316406 -72.375 17.957031 -68.292969 C 17.414062 -65.574219 17.957031 -63.394531 19.589844 -61.492188 C 20.40625 -60.675781 21.765625 -60.128906 22.582031 -59.585938 Z M 59.316406 -30.472656 C 60.675781 -32.921875 60.402344 -34.554688 59.859375 -35.097656 C 56.320312 -31.5625 52.785156 -28.570312 49.519531 -25.574219 C 45.4375 -21.765625 41.628906 -17.414062 37.277344 -13.605469 C 33.195312 -9.523438 28.296875 -5.714844 23.945312 -1.90625 C 21.765625 0 19.316406 1.089844 16.324219 1.90625 C 16.597656 -0.816406 17.414062 -3.265625 17.414062 -5.714844 C 17.683594 -8.433594 19.316406 -10.882812 18.5 -13.332031 C 18.5 -13.875 18.773438 -14.148438 19.046875 -14.691406 C 19.316406 -15.78125 19.863281 -16.871094 20.40625 -17.957031 C 21.496094 -21.496094 22.582031 -24.757812 23.398438 -28.023438 C 23.945312 -29.386719 24.488281 -30.746094 24.488281 -32.378906 C 24.757812 -33.738281 24.757812 -35.371094 24.214844 -36.460938 C 23.671875 -37.546875 22.3125 -38.636719 21.222656 -39.453125 C 20.40625 -40.8125 18.5 -41.628906 17.683594 -42.988281 C 16.871094 -44.351562 16.054688 -43.804688 15.238281 -43.535156 C 14.148438 -43.535156 13.875 -42.71875 14.148438 -41.628906 L 14.148438 -39.453125 C 12.789062 -34.28125 11.425781 -29.65625 10.339844 -24.757812 C 9.25 -21.222656 8.164062 -17.683594 7.617188 -14.148438 C 6.257812 -9.25 5.167969 -4.082031 5.714844 0.542969 C 5.984375 1.632812 6.800781 2.175781 7.074219 3.265625 C 7.617188 3.808594 8.164062 4.625 8.433594 5.441406 C 8.707031 5.984375 8.707031 6.800781 9.25 7.074219 C 11.15625 8.433594 12.242188 10.882812 14.964844 11.425781 C 16.871094 11.972656 18.230469 12.789062 20.40625 12.242188 C 22.3125 11.15625 24.214844 10.339844 25.847656 9.523438 C 27.480469 8.980469 29.113281 8.707031 30.203125 7.617188 C 31.832031 6.53125 33.195312 5.441406 34.28125 4.082031 C 35.914062 1.90625 37.820312 -0.273438 39.996094 -1.632812 L 41.355469 -2.992188 C 41.902344 -3.535156 42.171875 -4.351562 42.71875 -4.898438 L 45.710938 -9.25 C 49.519531 -14.691406 50.0625 -17.140625 51.152344 -18.5 C 52.785156 -20.40625 58.769531 -29.929688 59.042969 -30.203125 Z M 59.316406 -30.472656 "/></g></g></g><g fill="#000000" fill-opacity="1"><g transform="translate(267.862195, 153.240208)"><g><path d="M 11.15625 22.039062 C 13.875 20.40625 17.140625 19.863281 20.40625 17.957031 C 22.039062 16.324219 24.214844 14.421875 25.574219 11.972656 C 28.296875 10.339844 30.203125 7.617188 32.105469 5.441406 C 33.464844 3.808594 35.371094 2.175781 36.730469 0.273438 C 38.363281 -2.449219 40.269531 -4.625 40.8125 -8.164062 C 40.8125 -8.164062 41.085938 -8.433594 41.628906 -8.433594 C 43.804688 -9.523438 44.351562 -11.699219 45.167969 -13.605469 C 45.980469 -14.964844 46.253906 -16.324219 49.519531 -24.214844 L 53.054688 -33.464844 C 53.871094 -36.1875 53.601562 -39.179688 52.242188 -41.085938 C 51.695312 -41.355469 51.695312 -41.902344 51.425781 -42.445312 C 50.609375 -42.988281 50.335938 -44.351562 49.792969 -44.351562 C 48.976562 -44.351562 48.160156 -42.988281 47.613281 -41.902344 C 46.253906 -38.90625 44.894531 -36.1875 44.078125 -34.011719 C 41.628906 -29.929688 39.179688 -26.121094 37.003906 -22.039062 C 35.097656 -17.683594 32.378906 -13.605469 28.839844 -9.796875 C 27.480469 -7.890625 25.847656 -5.441406 24.214844 -4.082031 C 22.582031 -1.632812 20.40625 0.816406 17.957031 2.722656 C 15.78125 4.351562 13.605469 6.800781 10.882812 6.800781 C 11.699219 2.992188 11.972656 -0.542969 12.515625 -4.351562 C 14.421875 -10.066406 15.507812 -15.238281 16.871094 -20.949219 C 17.683594 -26.390625 19.316406 -31.832031 18.773438 -37.277344 C 18.230469 -37.820312 17.683594 -38.363281 17.683594 -38.90625 C 17.140625 -39.453125 17.414062 -40.269531 17.140625 -40.8125 C 15.238281 -41.355469 12.789062 -43.261719 11.425781 -42.988281 L 8.980469 -32.921875 C 8.164062 -30.472656 7.890625 -28.570312 7.617188 -26.390625 C 6.800781 -23.945312 5.984375 -20.679688 5.984375 -17.957031 C 5.167969 -15.78125 3.808594 -13.058594 3.808594 -10.066406 C 3.535156 -7.890625 2.449219 -6.257812 1.90625 -3.535156 C 2.175781 0.542969 1.632812 4.625 1.632812 8.980469 C 1.632812 9.523438 1.90625 10.882812 2.175781 12.515625 C 3.265625 14.421875 2.992188 16.871094 4.898438 16.871094 C 5.167969 16.871094 6.800781 19.863281 6.800781 20.132812 Z M 11.15625 22.039062 "/></g></g></g><g fill="#000000" fill-opacity="1"><g transform="translate(329.897501, 153.240208)"><g><path d="M 22.582031 -59.585938 C 24.214844 -58.5 25.847656 -58.5 27.207031 -59.042969 C 29.65625 -60.675781 32.105469 -62.308594 33.195312 -65.300781 C 34.28125 -68.292969 33.195312 -71.285156 32.378906 -74.007812 C 31.832031 -75.910156 30.203125 -76.726562 27.207031 -76.457031 C 27.207031 -76.457031 26.121094 -76.457031 25.847656 -76.183594 C 22.3125 -74.277344 19.316406 -72.375 17.957031 -68.292969 C 17.414062 -65.574219 17.957031 -63.394531 19.589844 -61.492188 C 20.40625 -60.675781 21.765625 -60.128906 22.582031 -59.585938 Z M 59.316406 -30.472656 C 60.675781 -32.921875 60.402344 -34.554688 59.859375 -35.097656 C 56.320312 -31.5625 52.785156 -28.570312 49.519531 -25.574219 C 45.4375 -21.765625 41.628906 -17.414062 37.277344 -13.605469 C 33.195312 -9.523438 28.296875 -5.714844 23.945312 -1.90625 C 21.765625 0 19.316406 1.089844 16.324219 1.90625 C 16.597656 -0.816406 17.414062 -3.265625 17.414062 -5.714844 C 17.683594 -8.433594 19.316406 -10.882812 18.5 -13.332031 C 18.5 -13.875 18.773438 -14.148438 19.046875 -14.691406 C 19.316406 -15.78125 19.863281 -16.871094 20.40625 -17.957031 C 21.496094 -21.496094 22.582031 -24.757812 23.398438 -28.023438 C 23.945312 -29.386719 24.488281 -30.746094 24.488281 -32.378906 C 24.757812 -33.738281 24.757812 -35.371094 24.214844 -36.460938 C 23.671875 -37.546875 22.3125 -38.636719 21.222656 -39.453125 C 20.40625 -40.8125 18.5 -41.628906 17.683594 -42.988281 C 16.871094 -44.351562 16.054688 -43.804688 15.238281 -43.535156 C 14.148438 -43.535156 13.875 -42.71875 14.148438 -41.628906 L 14.148438 -39.453125 C 12.789062 -34.28125 11.425781 -29.65625 10.339844 -24.757812 C 9.25 -21.222656 8.164062 -17.683594 7.617188 -14.148438 C 6.257812 -9.25 5.167969 -4.082031 5.714844 0.542969 C 5.984375 1.632812 6.800781 2.175781 7.074219 3.265625 C 7.617188 3.808594 8.164062 4.625 8.433594 5.441406 C 8.707031 5.984375 8.707031 6.800781 9.25 7.074219 C 11.15625 8.433594 12.242188 10.882812 14.964844 11.425781 C 16.871094 11.972656 18.230469 12.789062 20.40625 12.242188 C 22.3125 11.15625 24.214844 10.339844 25.847656 9.523438 C 27.480469 8.980469 29.113281 8.707031 30.203125 7.617188 C 31.832031 6.53125 33.195312 5.441406 34.28125 4.082031 C 35.914062 1.90625 37.820312 -0.273438 39.996094 -1.632812 L 41.355469 -2.992188 C 41.902344 -3.535156 42.171875 -4.351562 42.71875 -4.898438 L 45.710938 -9.25 C 49.519531 -14.691406 50.0625 -17.140625 51.152344 -18.5 C 52.785156 -20.40625 58.769531 -29.929688 59.042969 -30.203125 Z M 59.316406 -30.472656 "/></g></g></g><g fill="#000000" fill-opacity="1"><g transform="translate(384.858574, 153.240208)"><g><path d="M 8.164062 12.515625 C 10.339844 13.058594 11.425781 12.789062 12.515625 10.609375 C 12.789062 10.339844 12.789062 10.066406 13.332031 9.796875 L 14.148438 7.890625 C 15.507812 7.890625 16.597656 7.074219 17.683594 5.714844 C 19.046875 2.722656 24.214844 -7.347656 24.488281 -7.347656 L 25.847656 -9.25 C 25.304688 -9.25 26.9375 -10.609375 27.207031 -11.425781 C 28.023438 -12.789062 29.929688 -13.058594 29.65625 -15.238281 C 31.5625 -16.054688 32.921875 -17.414062 33.464844 -19.589844 C 35.371094 -19.863281 36.460938 -20.679688 37.277344 -23.671875 C 37.546875 -22.855469 38.09375 -22.582031 38.636719 -22.039062 C 38.636719 -20.40625 38.363281 -18.5 38.363281 -17.140625 C 37.820312 -11.425781 38.90625 -6.257812 40.269531 -1.632812 C 41.355469 1.90625 43.535156 4.351562 45.980469 6.257812 C 47.34375 7.890625 48.160156 7.890625 50.0625 8.707031 L 50.335938 8.707031 C 54.417969 7.890625 59.042969 7.890625 62.851562 5.167969 C 65.300781 3.535156 67.75 1.632812 69.382812 -0.273438 C 71.285156 -2.175781 73.464844 -3.808594 74.550781 -5.984375 C 74.550781 -6.257812 75.367188 -6.257812 75.640625 -6.53125 C 75.367188 -6.800781 75.367188 -7.347656 75.367188 -7.347656 C 76.726562 -8.164062 76.726562 -8.980469 77 -9.523438 L 81.625 -14.964844 C 82.714844 -15.78125 83.800781 -17.140625 84.347656 -18.230469 C 84.890625 -19.316406 84.890625 -20.40625 85.433594 -21.765625 L 87.882812 -25.574219 C 89.242188 -27.207031 88.15625 -28.296875 86.523438 -28.296875 L 61.21875 -4.082031 C 59.859375 -2.992188 58.226562 -2.175781 56.59375 -1.632812 C 51.96875 0.816406 51.152344 1.089844 50.878906 1.359375 L 50.0625 1.359375 C 49.792969 1.089844 48.976562 0.273438 48.976562 -0.273438 L 48.160156 -2.992188 C 48.160156 -4.898438 48.160156 -7.074219 47.886719 -8.980469 C 48.160156 -9.796875 47.886719 -10.609375 47.886719 -11.15625 C 48.160156 -13.332031 48.429688 -15.507812 48.429688 -17.683594 C 48.160156 -20.132812 47.613281 -22.582031 46.796875 -25.03125 C 46.796875 -25.847656 47.070312 -26.664062 46.796875 -26.664062 C 45.710938 -27.207031 45.980469 -28.570312 45.710938 -29.929688 C 41.355469 -32.105469 40.8125 -32.648438 39.996094 -32.648438 C 39.179688 -32.921875 38.636719 -33.195312 36.460938 -33.195312 C 33.738281 -32.921875 33.464844 -32.921875 32.105469 -32.105469 C 29.929688 -30.472656 28.023438 -28.570312 26.390625 -26.664062 C 23.128906 -23.398438 20.132812 -19.589844 17.414062 -15.507812 C 17.414062 -15.238281 17.414062 -15.507812 17.140625 -15.238281 C 17.414062 -15.78125 17.414062 -16.054688 17.414062 -16.324219 C 17.957031 -18.230469 18.773438 -19.863281 19.316406 -21.765625 C 19.863281 -23.671875 19.863281 -25.03125 20.132812 -26.9375 C 20.40625 -29.113281 20.679688 -31.019531 21.222656 -33.195312 C 21.222656 -33.464844 21.222656 -33.464844 20.949219 -33.738281 C 19.046875 -36.460938 16.597656 -38.90625 13.058594 -39.179688 C 11.425781 -39.453125 10.882812 -38.90625 10.609375 -37.003906 C 10.339844 -35.371094 10.066406 -33.738281 10.882812 -32.921875 C 11.15625 -32.921875 11.15625 -32.378906 11.15625 -32.105469 C 10.609375 -28.839844 10.339844 -25.847656 9.523438 -22.582031 C 8.433594 -17.683594 6.800781 -12.789062 5.441406 -8.164062 C 4.351562 -3.265625 3.808594 1.089844 2.992188 5.714844 C 2.449219 7.890625 6.53125 11.972656 8.164062 12.515625 Z M 8.164062 12.515625 "/></g></g></g><g fill="#000000" fill-opacity="1"><g transform="translate(455.32845, 153.240208)"><g><path d="M 71.558594 -26.664062 C 72.375 -27.207031 72.917969 -28.023438 73.734375 -28.570312 C 73.734375 -28.839844 73.464844 -28.839844 73.464844 -28.839844 L 72.917969 -30.746094 L 63.667969 -23.945312 C 63.125 -23.398438 61.492188 -22.582031 60.402344 -22.039062 C 57.683594 -20.40625 52.511719 -17.414062 50.0625 -15.78125 L 49.246094 -15.238281 L 40.269531 -10.066406 C 38.90625 -9.25 37.546875 -9.25 36.1875 -8.707031 C 34.011719 -7.890625 31.832031 -6.800781 29.929688 -5.984375 C 27.480469 -5.167969 25.03125 -4.082031 22.582031 -3.808594 C 19.046875 -3.265625 15.507812 -3.535156 11.972656 -3.265625 C 9.796875 -4.082031 9.25 -4.625 8.164062 -7.890625 C 10.066406 -8.980469 10.882812 -9.25 13.058594 -10.339844 C 13.605469 -10.882812 14.148438 -11.699219 14.964844 -11.972656 C 16.597656 -13.058594 18.773438 -13.875 20.679688 -14.964844 C 20.949219 -15.238281 20.949219 -16.054688 21.222656 -16.324219 L 25.03125 -19.046875 C 26.121094 -19.589844 28.023438 -19.863281 28.296875 -21.765625 C 28.570312 -22.582031 30.203125 -22.855469 31.019531 -23.671875 C 33.464844 -26.121094 35.914062 -28.570312 38.363281 -31.289062 C 39.179688 -32.105469 39.996094 -33.464844 40.539062 -34.828125 C 41.355469 -37.003906 39.996094 -41.628906 37.820312 -42.988281 C 35.914062 -44.621094 33.738281 -46.253906 31.289062 -47.34375 C 29.386719 -48.429688 26.9375 -50.335938 24.214844 -49.246094 C 23.128906 -48.976562 22.3125 -48.703125 21.496094 -48.703125 C 17.957031 -48.429688 14.964844 -46.796875 12.515625 -44.351562 C 10.066406 -41.628906 7.617188 -38.90625 5.167969 -35.914062 C 3.808594 -34.28125 2.722656 -32.648438 1.632812 -31.019531 C -1.089844 -25.847656 -2.449219 -20.679688 -2.722656 -15.238281 C -2.722656 -13.332031 -2.992188 -11.425781 -1.632812 -8.164062 C -1.089844 -5.441406 -1.089844 -5.441406 -0.542969 -4.898438 C 1.089844 -2.449219 2.175781 -0.816406 4.082031 0.542969 C 4.351562 0.816406 5.167969 1.089844 5.441406 1.632812 C 8.164062 3.808594 9.25 4.082031 11.699219 4.898438 C 14.148438 5.714844 17.140625 6.257812 19.863281 6.53125 C 22.039062 6.800781 23.945312 6.257812 26.121094 5.714844 C 27.480469 5.441406 29.113281 5.167969 30.203125 4.625 C 31.019531 4.082031 31.5625 3.808594 32.648438 3.808594 C 34.554688 3.535156 36.460938 3.535156 38.09375 2.722656 C 40.8125 1.632812 42.988281 -0.273438 45.4375 -1.632812 C 47.34375 -2.992188 48.976562 -4.082031 51.152344 -5.167969 L 56.320312 -9.25 C 57.410156 -10.066406 58.769531 -11.15625 59.859375 -12.242188 C 60.128906 -12.515625 61.21875 -13.605469 61.492188 -14.421875 L 61.492188 -14.691406 C 61.761719 -16.597656 62.851562 -17.140625 63.941406 -17.957031 C 63.125 -18.773438 63.667969 -19.316406 64.757812 -19.863281 L 65.574219 -20.949219 C 66.933594 -21.765625 66.933594 -22.582031 67.476562 -23.128906 Z M 9.796875 -24.488281 C 11.425781 -27.753906 13.332031 -31.019531 15.507812 -34.011719 C 17.414062 -36.460938 19.863281 -37.820312 22.3125 -39.722656 C 24.488281 -41.355469 26.9375 -41.355469 29.386719 -42.445312 C 30.472656 -42.988281 31.832031 -40.539062 31.019531 -39.179688 C 29.929688 -37.277344 28.839844 -35.644531 27.207031 -34.28125 L 19.863281 -27.753906 L 12.515625 -21.765625 C 11.425781 -20.949219 10.066406 -20.132812 7.890625 -18.773438 C 8.433594 -20.949219 8.980469 -22.855469 9.796875 -24.488281 Z M 9.796875 -24.488281 "/></g></g></g><path fill="#c8b37e" d="M 662.378906 23.734375 C 662.191406 23.015625 662 22.300781 661.808594 21.578125 C 662.417969 21.949219 663.160156 22.203125 663.625 22.707031 C 667.566406 27.011719 670.484375 31.929688 672 37.585938 C 672.996094 41.285156 673.847656 45.03125 674.59375 48.789062 C 674.8125 49.910156 674.628906 51.183594 674.339844 52.316406 C 673.082031 57.277344 674.367188 61.507812 677.746094 65.222656 C 678.078125 65.585938 678.40625 65.960938 678.742188 66.324219 C 681.976562 69.859375 681.953125 70.488281 677.898438 73.332031 C 676.429688 74.363281 675.679688 75.242188 676.960938 76.886719 C 677.933594 78.136719 677.3125 79.125 676.246094 79.914062 C 675.53125 80.4375 674.742188 80.867188 673.984375 81.328125 C 673.003906 81.921875 672.238281 82.648438 673.609375 83.523438 C 675.417969 84.671875 674.433594 85.722656 673.542969 86.628906 C 672.195312 87.988281 671.574219 89.253906 672.074219 91.351562 C 672.792969 94.375 669.777344 97.320312 666.28125 97.382812 C 660.625 97.476562 655.308594 95.871094 650.101562 93.898438 C 642.496094 91.023438 635.972656 86.808594 631.898438 79.40625 C 631.1875 78.121094 629.695312 77.109375 628.351562 76.363281 C 618.5 70.890625 606.515625 74.164062 600.386719 84.042969 C 599.042969 86.210938 598.109375 88.648438 597.136719 91.023438 C 596.503906 92.574219 596.054688 94.222656 595.6875 95.863281 C 593.433594 105.949219 587.203125 111.878906 577.125 113.992188 C 574.621094 114.519531 572.195312 115.449219 569.75 116.257812 C 569.363281 116.386719 569.101562 116.886719 568.777344 117.21875 C 569.207031 117.339844 569.679688 117.640625 570.058594 117.558594 C 574.894531 116.492188 579.828125 115.714844 584.515625 114.1875 C 591.441406 111.9375 595.585938 106.8125 597.527344 99.835938 C 598.378906 96.78125 599.304688 93.75 600.300781 90.742188 C 601.714844 86.480469 604.503906 83.152344 607.734375 80.148438 C 613.417969 74.855469 623.066406 76.695312 627.078125 79.90625 C 627.578125 80.3125 627.894531 81.914062 627.578125 82.226562 C 620.199219 89.519531 614.769531 98.789062 605.722656 104.367188 C 598.160156 109.023438 591.085938 114.679688 582.183594 116.796875 C 578.8125 117.597656 575.386719 118.171875 571.996094 118.886719 C 562.847656 120.824219 557.070312 127.1875 556.917969 135.496094 C 556.902344 136.476562 557.085938 137.460938 557.167969 138.445312 C 557.21875 139.0625 557.25 139.6875 557.289062 140.308594 C 556.714844 139.953125 556.082031 139.667969 555.5625 139.238281 C 550.308594 134.859375 549.421875 126.648438 553.640625 119.964844 C 557.363281 114.0625 562.941406 110.664062 569.542969 108.742188 C 573.246094 107.660156 576.921875 106.480469 580.585938 105.253906 C 587.875 102.8125 592.535156 97.953125 594.75 90.464844 C 597.324219 81.753906 602.820312 75.433594 611.71875 72.839844 C 614.859375 71.921875 618.339844 72.070312 621.679688 71.917969 C 623.742188 71.828125 625.832031 72.222656 627.902344 72.175781 C 635.707031 72 640.222656 66.234375 643.566406 60.117188 C 643.742188 59.796875 643.511719 59.253906 643.464844 58.8125 C 643.113281 58.949219 642.671875 58.992188 642.429688 59.242188 C 641.875 59.800781 641.378906 60.429688 640.925781 61.074219 C 635.933594 68.207031 628.960938 70.957031 620.683594 69.039062 C 612.835938 67.21875 607.136719 62.179688 605.238281 54.167969 C 604.214844 49.835938 604.601562 45.160156 604.410156 40.644531 C 604.375 39.808594 604.597656 38.957031 604.339844 37.992188 C 604.136719 38.289062 603.859375 38.5625 603.742188 38.886719 C 600.695312 47.261719 601.027344 60.75 612.429688 67.804688 C 612.96875 68.140625 613.367188 68.699219 613.832031 69.15625 C 613.320312 69.375 612.804688 69.578125 612.304688 69.824219 C 609.117188 71.390625 605.734375 72.667969 602.8125 74.625 C 600.492188 76.183594 599.023438 75.921875 597.175781 74.160156 C 589.480469 66.839844 586.707031 57.824219 587.773438 47.441406 C 587.878906 46.402344 588.050781 45.367188 587.988281 44.300781 C 586.015625 47.085938 585.683594 50.316406 585.5 53.539062 C 585.382812 55.609375 585.566406 57.695312 585.566406 59.78125 C 585.566406 60.097656 585.292969 60.417969 585.144531 60.738281 C 584.886719 60.476562 584.472656 60.25 584.402344 59.945312 C 584.125 58.789062 583.886719 57.621094 583.773438 56.445312 C 583.132812 49.519531 585.054688 43.109375 587.769531 36.855469 C 596.878906 15.90625 617.007812 4.105469 639.453125 6.808594 C 643.355469 7.277344 647.15625 8.597656 651.015625 9.484375 C 652.429688 9.808594 652.667969 10.378906 651.660156 11.464844 C 647.597656 15.863281 645.253906 21.179688 643.519531 26.824219 C 643.082031 28.242188 642.492188 29.613281 642.011719 31.019531 C 639.261719 39.019531 633.253906 43.199219 625.414062 45.292969 C 624.566406 45.515625 623.808594 46.070312 623.007812 46.46875 C 623.773438 47.023438 624.460938 47.765625 625.308594 48.109375 C 631.089844 50.4375 637.085938 50.507812 643.160156 49.621094 C 643.695312 49.546875 644.25 49.628906 644.796875 49.632812 C 644.503906 50.117188 644.265625 50.644531 643.90625 51.070312 C 641.0625 54.425781 637.570312 56.582031 633.199219 57.554688 C 629.140625 58.464844 625.757812 57.742188 622.847656 54.789062 C 621.523438 53.449219 620.21875 52.097656 618.863281 50.785156 C 618.632812 50.554688 618.214844 50.519531 617.886719 50.390625 C 617.914062 50.667969 617.890625 50.964844 617.980469 51.214844 C 620.179688 57.335938 628.03125 62.242188 634.078125 60.832031 C 636.585938 60.246094 639.304688 59.03125 641.109375 57.273438 C 645.707031 52.800781 650.097656 48.050781 654.101562 43.042969 C 657.921875 38.265625 659.773438 33.273438 660.972656 27.230469 C 661.210938 26.035156 661.691406 24.359375 662.078125 23.558594 C 662.628906 27.992188 662.808594 31.523438 661.75 35.089844 C 660.421875 39.550781 657.746094 43.613281 655.710938 47.871094 C 655.40625 48.511719 655.378906 49.285156 655.222656 49.996094 C 655.894531 49.722656 656.621094 49.535156 657.214844 49.148438 C 657.695312 48.839844 658.039062 48.300781 658.417969 47.847656 C 663.25 42.058594 665.378906 35.472656 664.082031 27.972656 C 663.824219 26.515625 662.960938 25.144531 662.378906 23.734375 Z M 670.164062 57.824219 C 670.320312 56.238281 669.949219 55.105469 669.546875 54.976562 C 668.9375 54.789062 668.636719 56.140625 668.109375 56.777344 C 667.023438 58.082031 666.40625 58.820312 664.910156 58.859375 C 663.53125 58.894531 661.25 57.773438 660.789062 59.058594 C 660.230469 60.636719 665.160156 65.417969 668.277344 67.257812 C 668.996094 67.683594 669.714844 67.683594 670.050781 66.710938 C 670.210938 66.25 670.101562 65.484375 670.027344 64.851562 C 669.90625 63.785156 669.15625 62.871094 669.195312 61.8125 C 669.242188 60.527344 669.996094 59.53125 670.164062 57.824219 Z M 670.507812 51.800781 C 670.945312 51.804688 671.382812 51.558594 671.820312 51.269531 C 672.339844 50.925781 672.476562 50.21875 672.125 49.699219 C 671.820312 49.25 670.582031 48.898438 670.292969 48.910156 C 666.902344 49.042969 666.058594 48.996094 662.726562 49.652344 C 661.878906 49.816406 659.722656 50.335938 659.3125 51.03125 C 659.3125 51.394531 660.675781 51.585938 661.367188 51.628906 C 662.238281 51.679688 668.347656 51.78125 670.507812 51.800781 Z M 670.507812 51.800781 " fill-opacity="1" fill-rule="nonzero"/><path fill="#c8b37e" d="M 638.523438 164.566406 C 638.964844 160.496094 639.515625 156.417969 639.316406 152.328125 C 639.089844 147.789062 637.921875 143.300781 635.898438 139.230469 C 636.871094 158.125 635.746094 177.058594 634.613281 195.945312 C 634.542969 197.054688 634.460938 198.230469 633.8125 199.132812 C 632.886719 200.4375 631.117188 200.777344 629.515625 200.898438 C 625.742188 201.179688 621.917969 200.8125 618.265625 199.824219 C 616.242188 199.273438 614.164062 198.457031 612.871094 196.8125 C 611.46875 195.03125 611.242188 192.628906 611.0625 190.367188 C 610.359375 181.316406 609.65625 172.261719 608.949219 163.214844 C 608.625 159.023438 608.28125 154.746094 606.652344 150.871094 C 606.539062 158.164062 606.417969 165.46875 606.304688 172.761719 C 606.277344 174.425781 605.917969 176.53125 604.300781 176.917969 C 603.203125 167.441406 595.222656 160.328125 591.613281 151.496094 C 588.984375 145.0625 588.769531 137.746094 590.59375 131.039062 C 592.417969 124.332031 596.207031 118.226562 601.089844 113.28125 C 606.003906 108.300781 611.957031 104.492188 617.414062 100.121094 C 619.78125 98.226562 622.066406 96.210938 624.117188 93.964844 C 626.214844 91.671875 627.460938 88.402344 629.535156 86.253906 C 632.039062 83.652344 633.636719 86.640625 635.585938 88.464844 C 638.003906 90.722656 640.746094 92.636719 643.699219 94.132812 C 636.769531 102.035156 631.980469 111.796875 629.976562 122.113281 C 625.785156 118.839844 621.332031 115.902344 616.667969 113.339844 C 615.621094 112.761719 614.222656 112.242188 613.332031 113.035156 C 616.714844 115.003906 620.035156 117.101562 622.988281 119.667969 C 627.871094 123.910156 631.601562 129.289062 635.785156 134.222656 C 641.882812 141.410156 649.425781 148.585938 650.082031 157.988281 C 650.734375 167.34375 644.292969 175.539062 638.21875 182.679688 C 637.671875 177.121094 637.824219 171.507812 638.375 165.945312 C 638.421875 165.484375 638.472656 165.027344 638.523438 164.566406 Z M 638.523438 164.566406 " fill-opacity="1" fill-rule="nonzero"/><path fill="#c8b37e" d="M 525.792969 33.574219 C 525.585938 29.589844 525.585938 25.570312 526.34375 21.652344 C 526.585938 20.414062 527.167969 15.824219 528.695312 15.46875 C 530.679688 15.011719 532.292969 19.011719 532.90625 20.292969 C 536.175781 27.105469 541.949219 32.410156 548.128906 36.753906 C 554.308594 41.097656 561.019531 44.660156 567.15625 49.066406 C 577.914062 56.796875 586.648438 66.941406 595.28125 76.980469 C 595.796875 77.578125 596.335938 78.230469 596.386719 79.015625 C 596.441406 79.851562 595.933594 80.609375 595.445312 81.289062 C 593.898438 83.453125 592.355469 85.613281 590.816406 87.777344 C 585.949219 76.5 576.460938 67.875 566.421875 60.796875 C 556.378906 53.722656 545.503906 47.808594 536.085938 39.917969 C 543.792969 49.289062 554.617188 55.421875 564.570312 62.371094 C 574.523438 69.320312 584.242188 77.914062 587.761719 89.53125 C 578.886719 80.25 568.234375 71.027344 555.410156 70.488281 C 567.769531 75.933594 580.058594 82.898438 587.765625 93.984375 C 571.15625 87.421875 554.550781 80.859375 537.941406 74.296875 C 551.496094 85.253906 572.089844 84.972656 584.457031 97.253906 C 577.902344 98.238281 571.578125 91.917969 565.210938 93.757812 C 570.863281 95.828125 576.378906 98.273438 581.714844 101.0625 C 577.78125 103.117188 573.589844 105.222656 569.160156 104.933594 C 565.28125 104.671875 561.792969 102.601562 558.5 100.53125 C 552.375 96.679688 546.289062 92.582031 541.484375 87.175781 C 535.628906 80.578125 531.929688 72.285156 529.722656 63.746094 C 527.511719 55.207031 526.703125 46.371094 526.0625 37.570312 C 525.957031 36.246094 525.859375 34.910156 525.792969 33.574219 Z M 525.792969 33.574219 " fill-opacity="1" fill-rule="nonzero"/><path fill="#c8b37e" d="M 567.195312 139.078125 C 568.03125 141.777344 568.867188 144.484375 569.699219 147.1875 C 569.835938 147.628906 569.933594 148.085938 570.046875 148.53125 C 569.628906 148.394531 569.101562 148.367188 568.808594 148.089844 C 566.589844 145.996094 564.140625 144.070312 562.296875 141.683594 C 558.40625 136.652344 559.445312 129.214844 564.667969 125.609375 C 567.203125 123.859375 570.277344 122.714844 573.265625 121.832031 C 578.660156 120.242188 584.167969 119.054688 589.632812 117.710938 C 589.992188 117.621094 590.371094 117.59375 590.746094 117.539062 C 590.5625 118.046875 590.488281 118.632812 590.1875 119.054688 C 586.1875 124.597656 582.238281 130.144531 579.90625 136.683594 C 578.027344 141.957031 577.550781 147.085938 580.308594 152.1875 C 580.492188 152.523438 580.546875 152.925781 580.660156 153.296875 C 580.410156 153.308594 580.089844 153.429688 579.921875 153.316406 C 574.820312 149.949219 570.417969 146.117188 570.292969 139.292969 C 570.1875 133.441406 572.816406 129.265625 577.820312 126.449219 C 579.03125 125.769531 580.320312 125.222656 581.460938 124.445312 C 582.015625 124.074219 582.296875 123.308594 582.703125 122.722656 C 582.070312 122.660156 581.347656 122.363281 580.804688 122.5625 C 573.667969 125.191406 567.65625 129.6875 567.195312 139.078125 Z M 567.195312 139.078125 " fill-opacity="1" fill-rule="nonzero"/><path fill="#c8b37e" d="M 594.832031 175.539062 C 594.839844 175.808594 594.832031 176.078125 594.8125 176.347656 C 594.574219 179.988281 592.335938 183.195312 589.828125 185.847656 C 587.300781 188.519531 584.414062 190.851562 581.265625 192.761719 C 584.621094 187.425781 588.113281 181.554688 587.484375 175.28125 C 586.984375 170.375 583.914062 165.96875 579.925781 163.066406 C 575.941406 160.164062 571.105469 158.625 566.246094 157.765625 C 562.386719 157.085938 558.378906 156.773438 554.839844 155.097656 C 552.578125 154.03125 550.425781 152.214844 549.347656 149.914062 C 547.207031 145.335938 550.039062 146.476562 553.285156 147.390625 C 559.671875 149.199219 566.429688 149.699219 572.523438 152.472656 C 576.925781 154.476562 580.742188 157.550781 584.5 160.597656 C 587.851562 163.308594 591.292969 166.128906 593.300781 169.945312 C 594.210938 171.671875 594.800781 173.59375 594.832031 175.539062 Z M 594.832031 175.539062 " fill-opacity="1" fill-rule="nonzero"/><path fill="#c8b37e" d="M 539.394531 119.515625 C 539.402344 112.542969 540.796875 105.539062 542.960938 98.882812 C 543.207031 98.128906 543.460938 97.371094 543.820312 96.664062 C 544.003906 96.308594 545.039062 94.800781 545.015625 96.132812 C 544.941406 100.019531 543.878906 103.816406 543.359375 107.667969 C 542.515625 113.949219 543.144531 120.34375 544.136719 126.601562 C 544.285156 127.535156 544.578125 128.613281 545.214844 129.226562 C 545.585938 129.585938 546.410156 129.414062 546.378906 128.890625 C 546.195312 125.527344 547.03125 122.234375 547.957031 119.039062 C 549.320312 114.316406 553.074219 110.675781 557.019531 107.738281 C 557.964844 107.035156 558.960938 106.34375 560.109375 106.0625 C 561.390625 105.742188 562.800781 105.980469 563.90625 106.703125 C 556.207031 109.761719 550.367188 116.929688 548.582031 125.015625 C 547.871094 128.246094 547.785156 131.738281 549.136719 134.761719 C 551.046875 139.035156 555.332031 141.539062 558.945312 144.578125 C 559.460938 145.011719 559.15625 145.886719 558.484375 145.863281 C 556.640625 145.804688 554.808594 145.304688 553.078125 144.644531 C 550.066406 143.507812 547.195312 141.851562 545.042969 139.457031 C 542.25 136.34375 540.867188 132.199219 540.128906 128.082031 C 539.617188 125.246094 539.390625 122.382812 539.394531 119.515625 Z M 539.394531 119.515625 " fill-opacity="1" fill-rule="nonzero"/><path fill="#c8b37e" d="M 635.714844 46.929688 C 634.261719 46.800781 632.808594 46.675781 631.355469 46.542969 C 632.527344 45.796875 633.679688 45.015625 634.878906 44.316406 C 639.234375 41.78125 642.710938 38.359375 643.882812 33.390625 C 645.621094 26.050781 652.042969 24.035156 657.425781 20.804688 C 657.675781 20.652344 659.054688 21.542969 659.0625 21.972656 C 659.101562 23.535156 658.964844 25.152344 658.5625 26.65625 C 656.941406 32.679688 654.210938 38.09375 649.542969 42.398438 C 645.613281 46.03125 640.730469 46.558594 635.714844 46.929688 Z M 635.714844 46.929688 " fill-opacity="1" fill-rule="nonzero"/><path fill="#c8b37e" d="M 577.304688 170.761719 C 578.007812 171.152344 579.636719 172.058594 580.242188 172.222656 C 580.144531 171.316406 579.824219 170.90625 579.402344 170.453125 C 576.1875 167.003906 572.003906 165.296875 567.628906 163.878906 C 564.253906 162.785156 560.933594 161.496094 557.621094 160.21875 C 557.128906 160.027344 556.792969 159.429688 556.390625 159.023438 C 556.910156 159.066406 557.441406 159.039062 557.941406 159.160156 C 563.515625 160.464844 569.242188 161.335938 574.609375 163.222656 C 582.503906 165.992188 586.097656 173.546875 583.921875 181.339844 C 583.753906 181.957031 583.304688 182.492188 582.980469 183.0625 C 582.722656 182.472656 582.394531 181.90625 582.21875 181.292969 C 580.90625 176.828125 577.796875 173.773438 573.957031 171.597656 C 570.714844 169.761719 567.125 168.53125 563.691406 167.023438 C 562.105469 166.328125 559.769531 165.140625 558.183594 164.441406 C 558.285156 164.214844 571.386719 167.476562 577.304688 170.761719 Z M 577.304688 170.761719 " fill-opacity="1" fill-rule="nonzero"/><path fill="#c8b37e" d="M 581.117188 144.460938 C 581.285156 137.894531 584.105469 132.628906 587.644531 127.65625 C 587.859375 127.355469 588.402344 127.292969 588.792969 127.113281 C 588.78125 127.492188 588.8125 127.875 588.742188 128.238281 C 588.15625 131.238281 587.453125 134.21875 586.964844 137.234375 C 585.6875 145.160156 587.835938 152.300781 592.160156 158.894531 C 592.378906 159.226562 592.683594 159.507812 592.851562 159.855469 C 593.183594 160.527344 593.445312 161.234375 593.734375 161.925781 C 593.070312 161.632812 592.261719 161.488281 591.761719 161.015625 C 589.175781 158.605469 586.480469 156.261719 584.171875 153.59375 C 581.914062 150.984375 581.117188 147.671875 581.117188 144.460938 Z M 581.117188 144.460938 " fill-opacity="1" fill-rule="nonzero"/><path fill="#c8b37e" d="M 675.195312 40.261719 C 674.738281 38.792969 674.238281 37.339844 673.835938 35.859375 C 672.949219 32.625 672.269531 29.324219 671.179688 26.160156 C 670.613281 24.523438 669.550781 22.953125 668.375 21.65625 C 663.707031 16.496094 659.863281 15.859375 654.367188 19.679688 C 653.535156 20.253906 652.554688 20.617188 651.648438 21.074219 C 652.074219 20.085938 652.980469 19.210938 653.726562 18.546875 C 655.703125 16.789062 658.347656 15.929688 660.769531 14.867188 C 664.128906 13.390625 666.902344 14.632812 669.355469 17.070312 C 673.238281 20.9375 674.378906 25.9375 675.179688 31.066406 C 675.421875 32.625 675.585938 37.054688 675.195312 40.261719 Z M 675.195312 40.261719 " fill-opacity="1" fill-rule="nonzero"/><path fill="#c8b37e" d="M 581.636719 195.207031 C 587.539062 194.324219 593.089844 195.589844 598.574219 197.402344 C 608.683594 200.746094 617.28125 206.832031 626.109375 212.5 C 628.796875 214.222656 631.492188 215.925781 634.1875 217.636719 C 634.003906 217.933594 633.816406 218.230469 633.636719 218.53125 C 629.503906 216.117188 625.183594 213.964844 621.277344 211.234375 C 614.097656 206.214844 606.75 201.546875 598.375 198.847656 C 594.25 197.519531 589.933594 196.765625 585.6875 195.808594 C 584.359375 195.515625 582.988281 195.40625 581.636719 195.207031 Z M 581.636719 195.207031 " fill-opacity="1" fill-rule="nonzero"/><path fill="#c8b37e" d="M 591.019531 187.863281 C 591.992188 186.820312 592.988281 185.804688 593.929688 184.738281 C 596.875 181.417969 598.671875 177.707031 597.921875 173.101562 C 597.855469 172.691406 598.058594 172.234375 598.132812 171.800781 C 598.527344 172.046875 599.023438 172.210938 599.300781 172.554688 C 600.867188 174.503906 601.101562 178.734375 599.6875 181.019531 C 597.664062 184.28125 594.613281 186.367188 591.464844 188.316406 C 591.316406 188.164062 591.167969 188.011719 591.019531 187.863281 Z M 591.019531 187.863281 " fill-opacity="1" fill-rule="nonzero"/><path fill="#c8b37e" d="M 616.261719 214.304688 C 606.390625 211.171875 596.21875 208.863281 587.21875 203.351562 " fill-opacity="1" fill-rule="nonzero"/><path fill="#c8b37e" d="M 662.277344 8.96875 C 662.476562 8.972656 662.683594 8.988281 662.878906 9.027344 C 663.601562 9.164062 664.308594 9.59375 664.601562 10.269531 C 664.171875 11 663.351562 11.394531 662.574219 11.734375 C 659.585938 13.035156 656.460938 14.132812 653.792969 16.011719 C 653.164062 16.457031 652.484375 16.972656 651.710938 16.921875 C 651.238281 16.890625 652.667969 14.414062 652.824219 14.21875 C 653.480469 13.390625 654.230469 12.640625 655.054688 11.980469 C 656.699219 10.65625 658.628906 9.6875 660.683594 9.183594 C 661.207031 9.0625 661.742188 8.957031 662.277344 8.96875 Z M 662.277344 8.96875 " fill-opacity="1" fill-rule="nonzero"/><path fill="#c8b37e" d="M 579.855469 187.515625 C 579.425781 188.347656 579 189.222656 578.484375 190.003906 C 577.921875 187.886719 577.445312 185.742188 577.070312 183.585938 C 576.96875 183 576.296875 180.878906 576.601562 180.390625 C 577.09375 179.605469 577.902344 181.089844 578.074219 181.496094 C 578.765625 183.128906 579.457031 184.757812 580.148438 186.390625 C 580.222656 186.628906 580.136719 186.964844 579.855469 187.515625 Z M 579.855469 187.515625 " fill-opacity="1" fill-rule="nonzero"/></svg>